<?xml version="1.0" encoding="UTF-8" standalone="no"?>
<!-- Created with Inkscape (http://www.inkscape.org/) -->

<svg
   version="1.1"
   id="svg3210"
   xml:space="preserve"
   width="682.66669"
   height="682.66669"
   viewBox="0 0 682.66669 682.66669"
   xmlns="http://www.w3.org/2000/svg"
   xmlns:svg="http://www.w3.org/2000/svg"><defs
     id="defs3214"><clipPath
       clipPathUnits="userSpaceOnUse"
       id="clipPath3224"><path
         d="M 0,512 H 512 V 0 H 0 Z"
         id="path3222" /></clipPath><clipPath
       clipPathUnits="userSpaceOnUse"
       id="clipPath3246"><path
         d="M 0,512 H 512 V 0 H 0 Z"
         id="path3244" /></clipPath></defs><g
     id="g3216"
     transform="matrix(1.3333333,0,0,-1.3333333,0,682.66667)"><g
       id="g3218"><g
         id="g3220"
         clip-path="url(#clipPath3224)"><g
           id="g3226"
           transform="translate(10,406)"><path
             d="M 0,0 H 492"
             style="fill:none;stroke:#000000;stroke-width:20;stroke-linecap:round;stroke-linejoin:round;stroke-miterlimit:10;stroke-dasharray:none;stroke-opacity:1"
             id="path3228" /></g></g></g><g
       id="g3230"
       transform="translate(376,406)"><path
         d="M 0,0 V 60"
         style="fill:none;stroke:#000000;stroke-width:20;stroke-linecap:round;stroke-linejoin:round;stroke-miterlimit:10;stroke-dasharray:none;stroke-opacity:1"
         id="path3232" /></g><path
       d="M 442,256 H 70 v 90 h 372 z"
       style="fill:none;stroke:#000000;stroke-width:20;stroke-linecap:round;stroke-linejoin:round;stroke-miterlimit:10;stroke-dasharray:none;stroke-opacity:1"
       id="path3234" /><path
       d="M 226,106 H 70 v 90 h 156 z"
       style="fill:none;stroke:#000000;stroke-width:20;stroke-linecap:round;stroke-linejoin:round;stroke-miterlimit:10;stroke-dasharray:none;stroke-opacity:1"
       id="path3236" /><path
       d="M 442,106 H 286 v 90 h 156 z"
       style="fill:none;stroke:#000000;stroke-width:20;stroke-linecap:round;stroke-linejoin:round;stroke-miterlimit:10;stroke-dasharray:none;stroke-opacity:1"
       id="path3238" /><g
       id="g3240"><g
         id="g3242"
         clip-path="url(#clipPath3246)"><g
           id="g3248"
           transform="translate(266,46)"><path
             d="m 0,0 c 0,-5.522 -4.478,-10 -10,-10 -5.523,0 -10,4.478 -10,10 0,5.522 4.477,10 10,10 C -4.478,10 0,5.522 0,0"
             style="fill:#000000;fill-opacity:1;fill-rule:nonzero;stroke:none"
             id="path3250" /></g><g
           id="g3252"
           transform="translate(211,46)"><path
             d="m 0,0 h -181 c -11.05,0 -20,8.95 -20,20 v 380 c 0,11.05 8.95,20 20,20 h 452 c 11.05,0 20,-8.95 20,-20 V 20 C 291,8.95 282.05,0 271,0 H 90"
             style="fill:none;stroke:#000000;stroke-width:20;stroke-linecap:round;stroke-linejoin:round;stroke-miterlimit:10;stroke-dasharray:none;stroke-opacity:1"
             id="path3254" /></g></g></g></g></svg>
