<svg height="512" viewBox="0 0 32 32" width="512" xmlns="http://www.w3.org/2000/svg"><g id="Icon_copy" data-name="Icon copy"><path d="m9.2759 12h-6.2759a1 1 0 0 0 -1 1v16a1 1 0 0 0 1 1h6.2759a1 1 0 0 0 1-1v-16a1 1 0 0 0 -1-1zm-1 16h-4.2759v-14h4.2759z"/><path d="m19.1377 2h-6.2754a1 1 0 0 0 -1 1v26a1 1 0 0 0 1 1h6.2754a1 1 0 0 0 1-1v-26a1 1 0 0 0 -1-1zm-1 26h-4.2754v-24h4.2754z"/><path d="m29 6h-6.2759a1 1 0 0 0 -1 1v22a1 1 0 0 0 1 1h6.2759a1 1 0 0 0 1-1v-22a1 1 0 0 0 -1-1zm-1 22h-4.2759v-20h4.2759z"/></g></svg>