<svg id="Layer_3" height="512" viewBox="0 0 64 64" width="512" xmlns="http://www.w3.org/2000/svg" data-name="Layer 3"><path d="m9.105 62.447a1.007 1.007 0 0 0 .6.509 1.03 1.03 0 0 0 .295.044.988.988 0 0 0 .485-.126l9-5a1 1 0 0 0 .41-1.321l-1.064-2.127a13.8 13.8 0 0 1 9.377-1.244l1.819.4a17.386 17.386 0 0 0 13.8-2.769l12.751-9a1 1 0 0 0 .371-1.133l-.285-.855a4.133 4.133 0 0 0 -5.77-2.393l-.894.449-.475-.237a6.252 6.252 0 0 0 -5.211-.1l-1.548-.387a5.463 5.463 0 0 0 -4.535.916l-2.564 1.927h-4.431l-1.436-.719a12.135 12.135 0 0 0 -12.158.757l-3.144 2.1-1.45.725-1.152-2.3a1 1 0 0 0 -1.38-.427l-9 5a1 1 0 0 0 -.41 1.321zm39.069-23.2-4.541 3.893a5.007 5.007 0 0 0 -1.23-1.782l1.82-1.456a4.21 4.21 0 0 1 3.951-.656zm-8.743.431a3.427 3.427 0 0 1 2.627-.6l-1.5 1.2a4.934 4.934 0 0 0 -1.558-.278zm-23.984 4.222a1.05 1.05 0 0 0 .108-.063l3.2-2.13a10.135 10.135 0 0 1 10.145-.637l1.649.825a1 1 0 0 0 .451.105h8a3.006 3.006 0 0 1 2.829 2h-8.829v2h10a.994.994 0 0 0 .651-.241l6.908-5.922 1.226-.612a2.137 2.137 0 0 1 2.982 1.236l.049.15-12.144 8.573a15.392 15.392 0 0 1 -12.211 2.45l-1.819-.405a15.79 15.79 0 0 0 -10.7 1.41l-4-7.992zm-4.875-1.514 7.106 14.21-7.25 4.028-7.106-14.215z"/><path d="m62 1h-40a1 1 0 0 0 -1 1v24a1 1 0 0 0 1 1h15.42l3.712 6.5a1 1 0 0 0 1.736 0l3.712-6.5h15.42a1 1 0 0 0 1-1v-24a1 1 0 0 0 -1-1zm-1 24h-15a1 1 0 0 0 -.868.5l-3.132 5.484-3.132-5.484a1 1 0 0 0 -.868-.5h-15v-22h38z"/><path d="m33 22a8 8 0 1 0 -8-8 8.009 8.009 0 0 0 8 8zm0-14a6 6 0 1 1 -6 6 6.006 6.006 0 0 1 6-6z"/><path d="m32 17h.056a1 1 0 0 0 .725-.374l4-5-1.562-1.25-3.3 4.128-1.21-1.21-1.414 1.414 2 2a1 1 0 0 0 .705.292z"/><path d="m45 6h8v2h-8z"/><path d="m55 6h4v2h-4z"/><path d="m43 10h16v2h-16z"/><path d="m43 14h16v2h-16z"/><path d="m43 18h16v2h-16z"/></svg>