<svg height="512pt" viewBox="0 -60 512.00032 512" width="512pt" xmlns="http://www.w3.org/2000/svg"><path d="m221.867188 211.890625-17.511719-52.511719-16.210938 5.390625 25.597657 76.800781c1.472656 4.476563 6.296874 6.914063 10.773437 5.441407 2.574219-.84375 4.59375-2.867188 5.441406-5.441407l25.601563-76.800781-16.214844-5.390625zm0 0"/><path d="m298.667969 196.207031h-8.535157c-4.710937 0-8.53125-3.820312-8.53125-8.53125 0-4.714843 3.820313-8.535156 8.53125-8.535156h25.601563v-17.066406h-25.601563c-14.136718 0-25.601562 11.460937-25.601562 25.601562 0 14.136719 11.464844 25.597657 25.601562 25.597657h8.535157c4.710937 0 8.53125 3.820312 8.53125 8.535156 0 4.710937-3.820313 8.53125-8.53125 8.53125h-34.132813v17.066406h34.132813c14.136719 0 25.597656-11.460938 25.597656-25.597656 0-14.140625-11.460937-25.601563-25.597656-25.601563zm0 0"/><path d="m503.46875 127.941406h-69.421875l5.25-2.023437c-1.066406-2.773438-2.175781-5.519531-3.363281-8.226563l-15.648438 6.828125c.492188 1.132813.9375 2.285157 1.40625 3.414063h-18.703125c-37.636719-81.179688-133.953125-116.480469-215.128906-78.84375-34.785156 16.125-62.722656 44.058594-78.847656 78.84375h-100.476563c-4.714844 0-8.535156 3.820312-8.535156 8.53125v119.476562c0 4.710938 3.820312 8.53125 8.535156 8.53125h70.507813l-6.203125 2.390625c1.070312 2.78125 2.207031 5.53125 3.414062 8.25l15.617188-6.882812c-.546875-1.230469-1.042969-2.503907-1.554688-3.757813h18.6875c37.648438 81.183594 133.976563 116.476563 215.160156 78.832032 34.773438-16.125 62.707032-44.054688 78.832032-78.832032h100.472656c4.710938 0 8.53125-3.820312 8.53125-8.53125v-119.46875c0-4.710937-3.820312-8.53125-8.53125-8.53125zm-486.402344 17.066406h136.535156v42.667969h-136.535156zm0 102.398438v-42.664062h136.535156v42.664062zm238.933594 93.867188c-53.570312-.015626-102.777344-29.539063-128-76.800782h34.132812c4.714844 0 8.535157-3.820312 8.535157-8.53125v-119.46875c0-4.710937-3.820313-8.53125-8.535157-8.53125h-34.132812c37.703125-70.695312 125.574219-97.4375 196.265625-59.734375 25.398437 13.546875 46.191406 34.335938 59.734375 59.734375h-34.132812c-4.714844 0-8.535157 3.820313-8.535157 8.53125v119.46875c0 4.710938 3.820313 8.53125 8.535157 8.53125h34.132812c-25.167969 47.316406-74.410156 76.859375-128 76.800782zm136.535156-93.867188h-34.136718v-102.398438h34.136718zm51.199219 0h-34.132813v-102.398438h34.132813zm51.199219 0h-34.132813v-102.398438h34.132813zm0 0"/><path d="m251.332031 0c-2.988281.078125-5.972656.203125-8.910156.410156l1.152344 17.066406c2.699219-.1875 5.417969-.3125 8.160156-.375zm0 0"/><path d="m173.578125 18.03125c-2.707031 1.261719-5.367187 2.558594-7.996094 3.925781l7.867188 15.144531c2.40625-1.242187 4.847656-2.445312 7.3125-3.582031zm0 0"/><path d="m269.175781.375-1.152343 17.066406c2.730468.179688 5.4375.417969 8.132812.726563l1.902344-16.964844c-2.953125-.367187-5.90625-.632813-8.882813-.828125zm0 0"/><path d="m150.125 30.917969c-2.558594 1.609375-4.972656 3.285156-7.398438 5l9.867188 13.917969c2.207031-1.570313 4.457031-3.089844 6.75-4.558594zm0 0"/><path d="m321.511719 11.136719-5.71875 16.085937c2.558593.921875 5.121093 1.886719 7.679687 2.910156l6.433594-15.796874c-2.773438-1.125-5.574219-2.191407-8.394531-3.199219zm0 0"/><path d="m75.945312 118.042969 15.652344 6.824219c1.089844-2.507813 2.230469-4.980469 3.414063-7.421876l-15.363281-7.5c-1.289063 2.65625-2.523438 5.355469-3.703126 8.097657zm0 0"/><path d="m372.574219 332.296875 11.09375 12.988281c2.269531-1.945312 4.480469-3.933594 6.65625-5.972656l-11.683594-12.441406c-1.972656 1.859375-3.996094 3.667968-6.066406 5.425781zm0 0"/><path d="m394.855469 82.925781c1.707031 2.101563 3.375 4.238281 5.007812 6.417969l13.703125-10.171875c-1.773437-2.394531-3.605468-4.742187-5.492187-7.046875zm0 0"/><path d="m368.980469 35.703125-9.8125 13.953125c2.21875 1.570312 4.386719 3.164062 6.519531 4.847656l10.523438-13.457031c-2.363282-1.832031-4.773438-3.613281-7.230469-5.34375zm0 0"/><path d="m338.882812 355.132812c-2.398437 1.253907-4.835937 2.449219-7.292968 3.601563l7.21875 15.460937c2.695312-1.246093 5.359375-2.558593 7.996094-3.941406zm0 0"/><path d="m346.113281 21.804688-7.867187 15.144531c2.421875 1.257812 4.8125 2.566406 7.175781 3.925781l8.53125-14.789062c-2.585937-1.5-5.203125-2.929688-7.839844-4.28125zm0 0"/><path d="m236.195312 374.324219-1.851562 16.964843c2.949219.324219 5.902344.585938 8.890625.777344l1.101563-17.070312c-2.738282-.136719-5.402344-.382813-8.140626-.671875zm0 0"/><path d="m295.695312 3.96875-3.410156 16.714844c2.660156.546875 5.316406 1.144531 7.933594 1.820312l4.214844-16.539062c-2.894532-.734375-5.808594-1.398438-8.738282-1.996094zm0 0"/><path d="m220.101562 371.804688c-2.671874-.535157-5.316406-1.140626-7.953124-1.800782l-4.148438 16.554688c2.882812.722656 5.789062 1.382812 8.710938 1.980468zm0 0"/><path d="m198.578125 8.472656c-2.847656.855469-5.671875 1.808594-8.464844 2.800782l5.71875 16.085937c2.558594-.910156 5.144531-1.765625 7.757813-2.5625zm0 0"/><path d="m103.714844 72.378906 13.234375 10.789063c1.707031-2.105469 3.476562-4.183594 5.308593-6.230469l-12.75-11.351562c-1.980468 2.230468-3.910156 4.496093-5.792968 6.792968zm0 0"/><path d="m139.714844 59.851562-11.09375-12.988281c-2.273438 1.941407-4.492188 3.933594-6.652344 5.976563l11.664062 12.464844c1.988282-1.882813 4.019532-3.683594 6.082032-5.453126zm0 0"/><path d="m88.261719 94.25 14.566406 8.882812c1.421875-2.335937 2.890625-4.636718 4.410156-6.902343l-14.183593-9.480469c-1.644532 2.464844-3.257813 4.964844-4.792969 7.5zm0 0"/><path d="m224.664062 2.421875c-2.949218.488281-5.859374 1.015625-8.761718 1.613281l3.464844 16.71875c2.652343-.546875 5.332031-1.050781 8.027343-1.476562zm0 0"/><path d="m293 371.585938c-2.644531.554687-5.316406 1.054687-8.011719 1.492187l2.738281 16.84375c2.953126-.476563 5.878907-1.03125 8.789063-1.636719zm0 0"/><path d="m268.800781 374.953125c-2.695312.1875-5.417969.316406-8.160156.386719l.453125 17.066406c2.988281-.085938 5.972656-.214844 8.910156-.4375zm0 0"/><path d="m316.527344 364.929688c-2.5625.921874-5.140625 1.773437-7.742188 2.558593l5.011719 16.316407c2.84375-.875 5.671875-1.816407 8.480469-2.824219zm0 0"/><path d="m428.039062 101.667969c-1.445312-2.601563-2.933593-5.160157-4.46875-7.679688l-14.566406 8.882813c1.414063 2.308594 2.777344 4.65625 4.085938 7.046875zm0 0"/><path d="m134.128906 327.621094c-2-1.84375-3.9375-3.738282-5.847656-5.675782l-12.167969 11.949219c2.097657 2.132813 4.242188 4.207031 6.425781 6.226563zm0 0"/><path d="m390.023438 315.160156 12.714843 11.386719c2.007813-2.226563 3.933594-4.515625 5.8125-6.828125l-13.269531-10.734375c-1.707031 2.105469-3.457031 4.164063-5.257812 6.175781zm0 0"/><path d="m436.25 273.988281-15.667969-6.765625c-1.085937 2.507813-2.222656 4.984375-3.414062 7.433594l15.363281 7.464844c1.289062-2.664063 2.53125-5.375 3.71875-8.132813zm0 0"/><path d="m359.714844 342.367188c-2.203125 1.570312-4.449219 3.089843-6.742188 4.5625l9.25 14.355468c2.503906-1.621094 4.964844-3.292968 7.390625-5.019531zm0 0"/><path d="m404.964844 295.859375 14.199218 9.464844c1.648438-2.484375 3.261719-4.984375 4.796876-7.542969l-14.601563-8.816406c-1.414063 2.332031-2.878906 4.628906-4.394531 6.894531zm0 0"/><path d="m98.679688 313.574219c1.773437 2.390625 3.625 4.746093 5.519531 7.039062l13.183593-10.828125c-1.707031-2.105468-3.378906-4.238281-5.015624-6.40625zm0 0"/><path d="m84.164062 291.125c1.445313 2.605469 2.941407 5.164062 4.488282 7.679688l14.550781-8.925782c-1.425781-2.3125-2.792969-4.660156-4.121094-7.050781zm0 0"/><path d="m378.144531 65.074219c1.988281 1.863281 3.933594 3.761719 5.839844 5.703125l12.203125-11.949219c-2.082031-2.125-4.21875-4.203125-6.402344-6.226563zm0 0"/><path d="m188.910156 362.429688-6.417968 15.8125c2.777343 1.136718 5.574218 2.195312 8.390624 3.171874l5.664063-16.101562c-2.574219-.90625-5.109375-1.851562-7.636719-2.882812zm0 0"/><path d="m166.921875 351.734375-8.535156 14.796875c2.589843 1.484375 5.207031 2.910156 7.859375 4.269531l7.816406-15.164062c-2.398438-1.246094-4.796875-2.550781-7.140625-3.902344zm0 0"/><path d="m153.164062 342.980469c-2.234374-1.570313-4.410156-3.191407-6.578124-4.855469l-10.417969 13.515625c2.34375 1.820313 4.75 3.585937 7.183593 5.292969zm0 0"/></svg>