<svg height="512" viewBox="0 0 32 32" width="512" xmlns="http://www.w3.org/2000/svg"><g id="Layer_2" data-name="Layer 2"><path d="m20.457 11.543a1 1 0 0 0 -1.414 0l-7.5 7.5a1 1 0 1 0 1.414 1.414l7.5-7.5a1 1 0 0 0 0-1.414z"/><path d="m16 12a3 3 0 1 0 -3 3 3 3 0 0 0 3-3zm-4 0a1 1 0 1 1 1 1 1 1 0 0 1 -1-1z"/><path d="m19 17a3 3 0 1 0 3 3 3 3 0 0 0 -3-3zm0 4a1 1 0 1 1 1-1 1 1 0 0 1 -1 1z"/><path d="m28.728 13.172-1.142-1.143a1.986 1.986 0 0 1 -.586-1.414v-1.615a4 4 0 0 0 -4-4h-1.615a1.986 1.986 0 0 1 -1.414-.586l-1.143-1.142a4 4 0 0 0 -5.656 0l-1.143 1.142a1.986 1.986 0 0 1 -1.414.586h-1.615a4 4 0 0 0 -4 4v1.615a1.986 1.986 0 0 1 -.586 1.414l-1.142 1.143a4 4 0 0 0 0 5.656l1.142 1.143a1.986 1.986 0 0 1 .586 1.414v1.615a4 4 0 0 0 4 4h1.615a1.986 1.986 0 0 1 1.414.586l1.143 1.142a4 4 0 0 0 5.656 0l1.143-1.142a1.986 1.986 0 0 1 1.414-.586h1.615a4 4 0 0 0 4-4v-1.615a1.986 1.986 0 0 1 .586-1.414l1.142-1.143a4 4 0 0 0 0-5.656zm-1.414 4.242-1.142 1.143a3.969 3.969 0 0 0 -1.172 2.828v1.615a2 2 0 0 1 -2 2h-1.615a3.973 3.973 0 0 0 -2.828 1.172l-1.143 1.142a2 2 0 0 1 -2.828 0l-1.142-1.142a3.978 3.978 0 0 0 -2.829-1.172h-1.615a2 2 0 0 1 -2-2v-1.615a3.973 3.973 0 0 0 -1.172-2.828l-1.142-1.143a2 2 0 0 1 0-2.828l1.142-1.142a3.978 3.978 0 0 0 1.172-2.829v-1.615a2 2 0 0 1 2-2h1.615a3.973 3.973 0 0 0 2.828-1.172l1.143-1.142a2 2 0 0 1 2.828 0l1.142 1.142a3.978 3.978 0 0 0 2.829 1.172h1.615a2 2 0 0 1 2 2v1.615a3.973 3.973 0 0 0 1.172 2.828l1.142 1.143a2 2 0 0 1 0 2.828z"/></g></svg>