<svg width="176" height="45" viewBox="0 0 176 45" fill="none" xmlns="http://www.w3.org/2000/svg">
<path d="M15.6562 15.5216C12.4905 14.791 8.15602 14.2553 8.15602 10.4078C8.15602 7.68051 10.4937 6.21944 13.3184 6.21944C16.7276 6.21944 18.4809 8.21623 18.8705 10.0182L25.2992 8.45974C23.8381 3.24861 19.3575 0.42388 13.6594 0.42388C6.54884 0.42388 1.62992 4.41746 1.62992 10.8462C1.62992 15.5703 3.91892 19.0281 10.7859 20.7327C16.1919 22.0477 20.0394 22.2912 20.0394 25.7003C20.0394 28.6225 17.312 29.9374 13.9029 29.9374C9.13006 29.9374 7.08457 27.4049 6.59754 25.4568L0.217555 27.4536C1.87343 33.1031 7.57159 35.733 13.9516 35.733C22.8641 35.733 26.6629 30.5218 26.6629 25.2133C26.6629 19.71 23.7407 17.3722 15.6562 15.5216ZM44.8177 9.8234C41.019 9.8234 38.5352 11.2845 36.9767 13.33V10.4078H30.7915V44.4994H36.9767V32.2264C38.5352 34.2232 41.019 35.733 44.8177 35.733C52.5127 35.733 56.8959 29.2556 56.8959 22.7782C56.8959 16.3008 52.5127 9.8234 44.8177 9.8234ZM43.8924 29.7913C39.6066 29.7913 37.2202 26.577 37.2202 22.7782C37.2202 18.9794 39.6066 15.7651 43.8924 15.7651C48.1295 15.7651 50.5646 18.9794 50.5646 22.7782C50.5646 26.577 48.1295 29.7913 43.8924 29.7913ZM72.8204 9.8234C65.4176 9.8234 59.8169 15.5216 59.8169 22.7782C59.8169 29.9861 65.4176 35.733 72.8204 35.733C80.2718 35.733 85.8726 29.9861 85.8726 22.7782C85.8726 15.5216 80.2718 9.8234 72.8204 9.8234ZM72.8204 29.7913C68.7294 29.7913 66.1482 26.6257 66.1482 22.7782C66.1482 18.9307 68.7294 15.7651 72.8204 15.7651C76.9601 15.7651 79.5413 18.9307 79.5413 22.7782C79.5413 26.6257 76.9601 29.7913 72.8204 29.7913ZM96.4276 14.4501V10.4078H90.2424V35.0999H96.4276V24.9211C96.4276 20.3431 97.353 15.6677 104.658 16.5443V9.8234C101.687 9.8234 98.2783 11.3819 96.4276 14.4501ZM122.044 16.0573V10.4078H116.784V5.2454H110.599V10.4078H107.092V16.0573H110.599V26.0899C110.599 31.2037 113.131 35.4408 119.463 35.4408C120.729 35.4408 121.411 35.2947 122.044 35.0999V29.4504C121.606 29.4991 121.021 29.5478 120.583 29.5478C117.174 29.5478 116.784 27.8919 116.784 25.0672V16.0573H122.044Z" fill="black"/>
<path d="M133.968 28.9634V20.9762H145.949V14.8397H133.968V7.14479H147.069V1.0083H127.393V35.0999H147.507V28.9634H133.968ZM175.094 35.0999L166.717 22.4373L174.704 10.4078H167.496L162.772 18.1028L158.048 10.4078H150.84L158.827 22.3886L150.451 35.0999H157.61L162.772 27.1127L167.935 35.0999H175.094Z" fill="#20EFCA"/>
</svg>
