<svg enable-background="new 0 0 32 32" height="512" viewBox="0 0 32 32" width="512" xmlns="http://www.w3.org/2000/svg"><g id="Layer_1"><g fill="rgb(0,0,0)"><path d="m16 30c7.72 0 14-6.28 14-14s-6.28-14-14-14-14 6.28-14 14 6.28 14 14 14zm0-26c6.62 0 12 5.38 12 12s-5.38 12-12 12-12-5.38-12-12 5.38-12 12-12z"/><path d="m10 15h12c.5527 0 1-.4478 1-1s-.4473-1-1-1h-10.1313l.9634-1.4453c.3062-.4595.1821-1.0806-.2773-1.3867-.4604-.3071-1.0811-.1826-1.3867.2773l-2 3c-.2046.3066-.2236.7012-.0498 1.0264.1742.3252.513.5283.8817.5283z"/><path d="m10 19h10.1318l-.9639 1.4453c-.3066.4595-.1826 1.0806.2773 1.3867.171.1138.3634.168.5538.168.3232 0 .6406-.1563.833-.4453l2-3c.2041-.3066.2236-.7012.0498-1.0264s-.5127-.5283-.8818-.5283h-12c-.5522 0-1 .4478-1 1s.4478 1 1 1z"/></g></g></svg>